<svg width="69" height="38" viewBox="0 0 69 38" fill="none" xmlns="http://www.w3.org/2000/svg">
<path d="M27.416 7.432C27.768 4.968 28.472 3.192 29.528 2.104C30.584 1.016 31.976 0.471998 33.704 0.471998C35.432 0.471998 36.696 0.983998 37.496 2.008C38.328 3 38.744 4.008 38.744 5.032C38.744 5.352 38.712 5.672 38.648 5.992C37.944 9.544 35.592 12.312 31.592 14.296L28.232 37H20.168L14.456 11.704L11.816 30.424C11.464 32.792 10.728 34.536 9.608 35.656C8.52 36.776 7.24 37.336 5.768 37.336C4.296 37.336 3.064 36.904 2.072 36.04C1.112 35.176 0.52 33.944 0.296 32.344C0.264 32.088 0.248 31.832 0.248 31.576C0.248 28.408 2.632 25.688 7.4 23.416L9.464 7.96C10.264 7.608 10.952 7.432 11.528 7.432C12.136 7.432 12.648 7.48 13.064 7.576C12.328 6.424 11.16 5.848 9.56 5.848C7.96 5.848 6.552 6.68 5.336 8.344L4.424 4.216C5.032 3.384 6.088 2.552 7.592 1.72C9.128 0.855999 10.808 0.423999 12.632 0.423999C14.488 0.423999 16.056 0.983998 17.336 2.104C18.616 3.192 19.544 5.032 20.12 7.624L24.632 26.632L27.416 7.432ZM32.216 10.168C34.2 8.76 35.192 7.448 35.192 6.232C35.192 6.008 35.112 5.752 34.952 5.464C34.792 5.176 34.552 5.032 34.232 5.032C33.624 5.032 33.208 5.368 32.984 6.04C32.664 6.968 32.408 8.344 32.216 10.168ZM6.92 27.4C4.712 28.648 3.608 29.864 3.608 31.048C3.608 32.232 4.04 32.824 4.904 32.824C5.48 32.824 5.896 32.456 6.152 31.72C6.408 30.952 6.648 29.592 6.872 27.64L6.92 27.4ZM36.0785 11.032C36.0785 7.992 37.4225 5.48 40.1105 3.496C42.7985 1.48 46.3505 0.471998 50.7665 0.471998C53.1025 0.471998 55.1985 0.711998 57.0545 1.192C58.9105 1.64 60.3825 2.216 61.4705 2.92C62.5585 3.624 63.4705 4.44 64.2065 5.368C65.4225 6.968 66.0145 8.76 65.9825 10.744C65.9825 12.696 65.2145 14.44 63.6785 15.976C62.1425 17.512 60.2865 18.312 58.1105 18.376C60.8305 18.568 63.1825 19.464 65.1665 21.064C67.1825 22.664 68.1905 24.68 68.1905 27.112C68.1905 30.312 66.9585 32.808 64.4945 34.6C62.0305 36.392 59.0225 37.288 55.4705 37.288C51.9505 37.288 49.5505 36.824 48.2705 35.896L49.7585 31.864C51.1665 32.6 52.7985 32.968 54.6545 32.968C56.5425 32.968 58.0785 32.424 59.2625 31.336C60.4465 30.216 61.0385 28.744 61.0385 26.92C61.0385 25.096 60.2225 23.56 58.5905 22.312C56.9905 21.064 54.7985 20.44 52.0145 20.44L52.4465 16.888C54.3665 16.888 55.9825 16.44 57.2945 15.544C58.6385 14.616 59.3265 13.24 59.3585 11.416C59.4225 9.592 58.6065 8.056 56.9105 6.808C55.0865 5.496 52.5905 4.84 49.4225 4.84C47.3425 4.84 45.3105 5.384 43.3265 6.472C41.3425 7.528 40.3505 8.952 40.3505 10.744C40.3505 11.608 40.7025 12.344 41.4065 12.952C42.1105 13.528 43.0385 13.88 44.1905 14.008L43.6625 17.56C41.2305 17.464 39.3585 16.776 38.0465 15.496C36.7345 14.216 36.0785 12.728 36.0785 11.032ZM49.8065 27.784C49.2945 31.208 48.3025 33.64 46.8305 35.08C45.3585 36.488 43.6305 37.192 41.6465 37.192C39.6625 37.192 38.1585 36.68 37.1345 35.656C36.1105 34.632 35.5985 33.32 35.5985 31.72C35.5985 27.944 38.4625 24.728 44.1905 22.072C44.3505 20.728 44.5745 18.92 44.8625 16.648C45.1825 14.344 45.4225 12.488 45.5825 11.08C45.7745 9.672 45.9025 8.744 45.9665 8.296C47.2785 7.464 48.7985 7.048 50.5265 7.048C51.3265 7.048 52.0945 7.128 52.8305 7.288L49.8065 27.784ZM39.1505 31.096C39.1505 32.248 39.6945 32.824 40.7825 32.824C41.2305 32.824 41.6945 32.536 42.1745 31.96C42.6865 31.352 43.0385 30.408 43.2305 29.128L43.6625 26.152C40.6545 27.848 39.1505 29.496 39.1505 31.096Z" fill="#120F91" fill-opacity="0.92"/>
</svg>
